<svg xmlns="http://www.w3.org/2000/svg" data-name="Layer 1" viewBox="0 0 100 125" x="0px" y="0px"><title>Left</title><path d="M91.32,50.05H8.68M34.57,75.94,8.68,50.05m25.89-26L8.68,50"/><path d="M34.57,21.63a2.43,2.43,0,0,1,1.72,4.15L14.46,47.61H91.32a2.44,2.44,0,0,1,0,4.87H14.56L36.29,74.22a2.43,2.43,0,0,1-3.44,3.44L7,51.77A2.29,2.29,0,0,1,6.43,51a2.44,2.44,0,0,1-.18-.89h0V50h0A2.39,2.39,0,0,1,7,48.23L32.85,22.34A2.44,2.44,0,0,1,34.57,21.63Z"/><text x="0" y="115" fill="#000000" font-size="5px" font-weight="bold" font-family="'Helvetica Neue', Helvetica, Arial-Unicode, Arial, Sans-serif">Created by Rakesh Paul Muthu</text><text x="0" y="120" fill="#000000" font-size="5px" font-weight="bold" font-family="'Helvetica Neue', Helvetica, Arial-Unicode, Arial, Sans-serif">from the Noun Project</text></svg>