<svg xmlns="http://www.w3.org/2000/svg" xmlns:xlink="http://www.w3.org/1999/xlink" version="1.1" x="0px" y="0px" viewBox="0 0 100 125" enable-background="new 0 0 100 100" xml:space="preserve"><g><path fill="#000000" d="M95.609,50.914c-0.666-0.975-1.996-2.167-4.535-2.409c-0.012-0.002-0.023-0.002-0.035-0.004   c-0.044-0.005-0.081-0.014-0.126-0.017c-0.041-0.003-0.083-0.005-0.123-0.005c-0.272,0-27.433-0.333-50.532-24.449   c-0.414-0.432-1.029-0.602-1.607-0.448c-0.476,0.127-4.681,1.346-6.143,4.689c-0.532,1.218-0.885,3.208,0.459,5.769   c0.03,0.058,0.064,0.115,0.102,0.168c0.014,0.208-0.091,2.717-9.369,6.693c-0.112,0.048-0.22,0.109-0.319,0.182   c-0.623,0.454-2.126,1.337-3.206,1.502l-0.706-0.117c-0.02-0.032-0.04-0.063-0.058-0.111l0.822-3.933   c0.126-0.607-0.101-1.235-0.588-1.619c-0.336-0.266-3.371-2.591-6.37-2.591c-1.513,0-4.188,0.612-5.104,4.695   C7.58,41.384,5.768,49.113,5.584,51.98c-1.862,2.652-3.206,5.494-3.804,8.056c-0.504,2.159-0.095,4.151,1.183,5.761   c2.952,3.723,10.294,5.454,23.106,5.454c1.95,0,3.714-0.039,5.131-0.069c0.94-0.021,1.728-0.037,2.314-0.037   c0.756,0,2.292,0.049,4.237,0.112c4.02,0.13,10.097,0.327,16.442,0.327c12.509,0,20.646-0.747,24.875-2.285   c0.66-0.24,1.348-0.479,2.055-0.723c5.82-2.018,13.066-4.53,15.139-11.223C96.38,56.966,97.366,53.482,95.609,50.914z    M92.906,52.758c0.574,0.838,0.516,2.143,0.369,2.996c-0.127,0.025-0.252,0.062-0.375,0.121c-4.055,1.947-8.119,3.141-12.051,3.8   c1.721-3.043,6.657-6.21,10.188-7.872C91.926,51.93,92.55,52.236,92.906,52.758z M48.536,35.752l-7.36,3.75   c-1.518-0.812-2.735-1.571-3.678-2.216l8.387-3.612C46.77,34.396,47.652,35.086,48.536,35.752z M51.493,37.917   c0.008-0.005,0.015-0.01,0.022-0.014c0.988,0.68,1.976,1.332,2.955,1.947l-5.375,3.087c-1.543-0.54-2.944-1.095-4.217-1.65   L51.493,37.917z M57.699,41.769c0.934,0.529,1.861,1.035,2.779,1.51l-3.334,1.94c-1.328-0.3-2.592-0.619-3.791-0.954L57.699,41.769   z M64.025,45c1.681,0.767,3.324,1.457,4.91,2.059c-2.455-0.23-4.758-0.532-6.918-0.891L64.025,45z M35.504,29.589   c0.533-1.226,2.042-2.086,3.125-2.538c1.481,1.511,2.974,2.928,4.471,4.26l-6.75,2.907c-0.014-0.86-0.322-1.472-0.531-1.787   C35.259,31.325,35.155,30.395,35.504,29.589z M25.15,43.841c4.009-1.73,6.908-3.423,8.755-5.113   c3.979,3.214,17.55,12.107,45.949,12.107c0.795,0,1.61-0.01,2.429-0.024c1.065,0.196,2.05,0.354,2.94,0.476   c-3.295,2.087-7.152,5.223-8.062,8.862c-15.01,1.334-27.165-4.539-27.326-4.619c-0.107-0.053-0.222-0.094-0.337-0.123   c-4.162-1.02-28.544-1.062-32.562-1.062c-0.161,0-0.279-0.005-0.393,0.004c-3.158,0.196-6.341-1.721-7.664-2.629   c0.155-1.373,0.726-4.279,1.421-7.446l8.057,1.331c0.449,0.184,0.946,0.291,1.49,0.291C22.03,45.894,24.467,44.315,25.15,43.841z    M13.277,37.487c1.159,0,2.587,0.73,3.534,1.327l-0.65,3.109l-5.136-0.848c0.112-0.479,0.224-0.957,0.336-1.424   C11.846,37.487,12.812,37.487,13.277,37.487z M31.128,67.91c-1.4,0.029-3.144,0.068-5.059,0.068   c-14.214,0-19.017-2.293-20.542-4.215c-0.456-0.576-0.677-1.207-0.682-1.936c2.821-0.26,20.168-1.487,32.583,6.143   c-1.827-0.059-3.163-0.101-3.914-0.101C32.91,67.871,32.098,67.891,31.128,67.91z M80.053,65.484   c-0.723,0.25-1.426,0.494-2.1,0.738c-3.812,1.385-11.807,2.088-23.758,2.088c-3.892,0-7.688-0.074-10.965-0.162   c-12.392-10.609-31.728-10.104-37.511-9.68c0.487-1.201,1.132-2.436,1.91-3.654c1.89,1.205,5.38,3.012,9.065,2.799   c7.711-0.02,28.128,0.158,31.867,0.937c1.542,0.736,11.291,5.136,23.98,5.136c5.514,0,11.582-0.836,17.773-3.154   C87.635,62.85,83.684,64.227,80.053,65.484z"/><circle fill="#000000" cx="13.791" cy="65.042" r="1.289"/><circle fill="#000000" cx="18.41" cy="65.042" r="1.289"/><circle fill="#000000" cx="23.028" cy="65.042" r="1.289"/></g><text x="0" y="115" fill="#000000" font-size="5px" font-weight="bold" font-family="'Helvetica Neue', Helvetica, Arial-Unicode, Arial, Sans-serif">Created by Andrey Vasiliev</text><text x="0" y="120" fill="#000000" font-size="5px" font-weight="bold" font-family="'Helvetica Neue', Helvetica, Arial-Unicode, Arial, Sans-serif">from the Noun Project</text></svg>