<svg xmlns="http://www.w3.org/2000/svg" xmlns:xlink="http://www.w3.org/1999/xlink" version="1.1" x="0px" y="0px" viewBox="0 0 52 65" enable-background="new 0 0 52 52" xml:space="preserve"><g><g><g><path d="M12.7421875,49.9260254C7.921875,49.9260254,4,46.0783691,4,41.348877s3.921875-8.5776367,8.7421875-8.5776367     c4.8208008,0,8.7426758,3.8481445,8.7426758,8.5776367S17.5629883,49.9260254,12.7421875,49.9260254z M12.7421875,34.7712402     C9.0244141,34.7712402,6,37.7219238,6,41.348877c0,3.6264648,3.0244141,6.5771484,6.7421875,6.5771484     s6.7426758-2.9506836,6.7426758-6.5771484C19.4848633,37.7219238,16.4599609,34.7712402,12.7421875,34.7712402z"/></g></g><g><g><rect x="19.4848633" y="3.4616699" width="2" height="37.887207"/></g></g><g><g><path d="M48,25.0559082L19.4848633,15.548584V2.0739746L48,11.5812988V25.0559082z M21.4848633,14.1071777L46,22.2805176     v-9.2578125L21.4848633,4.8493652V14.1071777z"/></g></g></g><text x="0" y="67" fill="#000000" font-size="5px" font-weight="bold" font-family="'Helvetica Neue', Helvetica, Arial-Unicode, Arial, Sans-serif">Created by DinosoftLab</text><text x="0" y="72" fill="#000000" font-size="5px" font-weight="bold" font-family="'Helvetica Neue', Helvetica, Arial-Unicode, Arial, Sans-serif">from the Noun Project</text></svg>