<svg xmlns="http://www.w3.org/2000/svg" xmlns:xlink="http://www.w3.org/1999/xlink" version="1.1" x="0px" y="0px" viewBox="0 0 100 125" enable-background="new 0 0 100 100" xml:space="preserve"><title>Search</title><path d="M96.641,99.359L63.52,66.24C47.901,80.291,23.849,79.02,9.798,63.4c-14.051-15.62-12.779-39.671,2.84-53.722  c15.619-14.05,39.671-12.779,53.721,2.84c13.013,14.464,13.013,36.417,0,50.882L99.48,96.52L96.641,99.359z M38.12,4  C19.342,3.934,4.066,19.102,4,37.88C3.934,56.657,19.103,71.934,37.88,72C56.658,72.066,71.934,56.897,72,38.12  c0-0.04,0-0.08,0-0.12C71.979,19.278,56.842,4.088,38.12,4z"/><text x="0" y="115" fill="#000000" font-size="5px" font-weight="bold" font-family="'Helvetica Neue', Helvetica, Arial-Unicode, Arial, Sans-serif">Created by Suresh Savani</text><text x="0" y="120" fill="#000000" font-size="5px" font-weight="bold" font-family="'Helvetica Neue', Helvetica, Arial-Unicode, Arial, Sans-serif">from the Noun Project</text></svg>