<svg xmlns="http://www.w3.org/2000/svg" xmlns:xlink="http://www.w3.org/1999/xlink" version="1.1" x="0px" y="0px" viewBox="0 0 60 75" style="enable-background:new 0 0 60 60;" xml:space="preserve"><path d="M7,27.2h2.21l1.91,20.73c0,2.21,1.79,4,4,4h29.75c2.21,0,4-1.79,4-3.91l1.92-20.82H53c0.55,0,1-0.45,1-1v-6.06  c0-0.55-0.45-1-1-1h-9.64l5.38-9.58c0.27-0.48,0.1-1.09-0.38-1.36C47.88,7.93,47.27,8.1,47,8.58l-5.94,10.56H18.93L13,8.58  c-0.27-0.48-0.88-0.65-1.36-0.38c-0.48,0.27-0.65,0.88-0.38,1.36l5.38,9.58H7c-0.55,0-1,0.45-1,1v6.06C6,26.75,6.45,27.2,7,27.2z   M46.87,47.93c0,1.1-0.9,2-2,2H15.13c-1.1,0-2-0.9-2-2.09l-1.9-20.63h37.55L46.87,47.93z M8,21.14h9.76l1.42,2.52  c0.18,0.33,0.52,0.51,0.87,0.51c0.17,0,0.33-0.04,0.49-0.13c0.48-0.27,0.65-0.88,0.38-1.36l-0.87-1.54h19.89l-0.87,1.54  c-0.27,0.48-0.1,1.09,0.38,1.36c0.16,0.09,0.32,0.13,0.49,0.13c0.35,0,0.69-0.18,0.87-0.51l1.42-2.52H52v4.06H8V21.14z"/><path d="M30,43.29c-1.03,0-1.86-0.84-1.86-1.86c0-0.55-0.45-1-1-1s-1,0.45-1,1c0,1.78,1.22,3.27,2.86,3.72v0.62c0,0.55,0.45,1,1,1  s1-0.45,1-1v-0.62c1.64-0.44,2.86-1.93,2.86-3.72c0-2.13-1.73-3.86-3.86-3.86c-1.03,0-1.86-0.84-1.86-1.86  c0-1.03,0.84-1.86,1.86-1.86s1.86,0.84,1.86,1.86c0,0.55,0.45,1,1,1s1-0.45,1-1c0-1.78-1.22-3.27-2.86-3.72v-0.62c0-0.55-0.45-1-1-1  s-1,0.45-1,1v0.62c-1.64,0.44-2.86,1.93-2.86,3.72c0,2.13,1.73,3.86,3.86,3.86c1.03,0,1.86,0.84,1.86,1.86S31.03,43.29,30,43.29z"/><text x="0" y="75" fill="#000000" font-size="5px" font-weight="bold" font-family="'Helvetica Neue', Helvetica, Arial-Unicode, Arial, Sans-serif">Created by Vectorstall</text><text x="0" y="80" fill="#000000" font-size="5px" font-weight="bold" font-family="'Helvetica Neue', Helvetica, Arial-Unicode, Arial, Sans-serif">from the Noun Project</text></svg>