<svg xmlns="http://www.w3.org/2000/svg" xmlns:xlink="http://www.w3.org/1999/xlink" viewBox="0 0 24 30" version="1.1" x="0px" y="0px"><title>2/icons/sign-up-24-black</title><desc>Created with Sketch.</desc><g stroke="none" stroke-width="1" fill="none" fill-rule="evenodd"><g fill-rule="nonzero" fill="#000000"><path d="M18,16 L19,16 C19.5522847,16 20,16.4477153 20,17 C20,17.5522847 19.5522847,18 19,18 L18,18 L18,19 C18,19.5522847 17.5522847,20 17,20 C16.4477153,20 16,19.5522847 16,19 L16,18 L15,18 C14.4477153,18 14,17.5522847 14,17 C14,16.4477153 14.4477153,16 15,16 L16,16 L16,15 C16,14.4477153 16.4477153,14 17,14 C17.5522847,14 18,14.4477153 18,15 L18,16 Z M10.8612942,11.8697577 C8.64851548,11.3543714 7,9.36970139 7,7 C7,4.23857625 9.23857625,2 12,2 C14.7614237,2 17,4.23857625 17,7 C17,7.71531719 16.8497885,8.39555061 16.5791882,9.01087767 C14.2840511,9.12981923 12.2447929,10.2160728 10.8612942,11.8697577 Z M10.754629,22 L4,22 C3.44771525,22 3,21.5522847 3,21 L3,17 C3,14.790861 4.790861,13 7,13 L9,13 C9.26521649,13 9.5195704,13.1053568 9.70710678,13.2928932 L9.84058374,13.4263702 C9.51062182,14.0861336 9.26917425,14.7978718 9.13180618,15.5460197 L8.58578644,15 L7,15 C5.8954305,15 5,15.8954305 5,17 L5,20 L9.58151705,20 C9.87525866,20.7256647 10.2723841,21.3984195 10.754629,22 Z M12,10 C13.6568542,10 15,8.65685425 15,7 C15,5.34314575 13.6568542,4 12,4 C10.3431458,4 9,5.34314575 9,7 C9,8.65685425 10.3431458,10 12,10 Z M17,23 C13.6862915,23 11,20.3137085 11,17 C11,13.6862915 13.6862915,11 17,11 C20.3137085,11 23,13.6862915 23,17 C23,20.3137085 20.3137085,23 17,23 Z M17,21 C19.209139,21 21,19.209139 21,17 C21,14.790861 19.209139,13 17,13 C14.790861,13 13,14.790861 13,17 C13,19.209139 14.790861,21 17,21 Z"/></g></g><text x="0" y="39" fill="#000000" font-size="5px" font-weight="bold" font-family="'Helvetica Neue', Helvetica, Arial-Unicode, Arial, Sans-serif">Created by Sergey Ryazantsev</text><text x="0" y="44" fill="#000000" font-size="5px" font-weight="bold" font-family="'Helvetica Neue', Helvetica, Arial-Unicode, Arial, Sans-serif">from the Noun Project</text></svg>