<svg xmlns="http://www.w3.org/2000/svg" viewBox="0 0 100 125" x="0px" y="0px"><title>Straight_Line</title><path d="M80,52.5H20a2.5,2.5,0,0,1,0-5H80a2.5,2.5,0,0,1,0,5Z"/><path d="M60,72.5a2.5,2.5,0,0,1-1.7676-4.2678l20-20a2.5,2.5,0,1,1,3.5352,3.5357l-20,20A2.4921,2.4921,0,0,1,60,72.5Z"/><path d="M80,52.5a2.4921,2.4921,0,0,1-1.7676-.7321l-20-20a2.5,2.5,0,1,1,3.5352-3.5357l20,20A2.5,2.5,0,0,1,80,52.5Z"/><text x="0" y="115" fill="#000000" font-size="5px" font-weight="bold" font-family="'Helvetica Neue', Helvetica, Arial-Unicode, Arial, Sans-serif">Created by Bohdan Burmich</text><text x="0" y="120" fill="#000000" font-size="5px" font-weight="bold" font-family="'Helvetica Neue', Helvetica, Arial-Unicode, Arial, Sans-serif">from the Noun Project</text></svg>