<svg xmlns="http://www.w3.org/2000/svg" xmlns:xlink="http://www.w3.org/1999/xlink" version="1.1" x="0px" y="0px" viewBox="0 0 139 173.75" enable-background="new 0 0 139 139" xml:space="preserve"><path d="M70.804,131.334c-33.543,0-60.833-27.291-60.833-60.836c0-33.543,27.29-60.833,60.833-60.833  c33.545,0,60.835,27.29,60.835,60.833C131.639,104.043,104.349,131.334,70.804,131.334z M70.804,15.665  c-30.235,0-54.833,24.598-54.833,54.833c0,30.236,24.598,54.836,54.833,54.836c30.236,0,54.835-24.6,54.835-54.836  C125.639,40.263,101.04,15.665,70.804,15.665z"/><path d="M103.654,67.712L76.073,51.788c-0.996-0.574-2.222-0.574-3.218,0s-1.609,1.639-1.609,2.787v13.072L43.78,51.788  c-0.997-0.574-2.222-0.574-3.218,0s-1.609,1.639-1.609,2.787v31.849c0,1.148,0.613,2.211,1.609,2.785  c0.498,0.287,1.053,0.432,1.608,0.432s1.111-0.145,1.609-0.432l27.466-15.857v13.072c0,1.148,0.613,2.211,1.609,2.785  c0.498,0.287,1.054,0.432,1.609,0.432c0.555,0,1.111-0.145,1.608-0.432l27.581-15.924c0.996-0.574,1.609-1.637,1.609-2.787  C105.264,69.35,104.65,68.286,103.654,67.712z"/><text x="0" y="154" fill="#000000" font-size="5px" font-weight="bold" font-family="'Helvetica Neue', Helvetica, Arial-Unicode, Arial, Sans-serif">Created by Chanut is Industries</text><text x="0" y="159" fill="#000000" font-size="5px" font-weight="bold" font-family="'Helvetica Neue', Helvetica, Arial-Unicode, Arial, Sans-serif">from the Noun Project</text></svg>